<svg width="100" height="100" viewBox="0 0 100 100" fill="none" xmlns="http://www.w3.org/2000/svg">
<g clip-path="url(#clip0_3_26)">
<g clip-path="url(#clip1_3_26)">
<rect x="3" y="3" width="94" height="94" fill="#FFB140"/>
<path d="M97.4691 0.0177307H2.53293C1.13374 0.0177307 0 1.15198 0 2.55066V12.0851V17.1722V29.0836V70.0957V82.4924V87.5795V97.4519C0 98.8506 1.13374 99.9848 2.53293 99.9848H97.4691C98.8683 99.9848 100.002 98.8506 100.002 97.4519V2.55066C100.002 1.15198 98.8683 0.0177307 97.4691 0.0177307ZM5.06586 94.9184V91.3511H8.85866C10.9382 91.3511 12.6307 89.6591 12.6307 87.579V82.4924C12.6307 80.4129 10.9382 78.7204 8.85866 78.7204H5.06586V72.6287H5.34043C10.7432 72.6287 15.1383 69.0096 15.1383 64.5608V34.6185C15.1383 30.1697 10.7432 26.5507 5.34043 26.5507H5.06586V20.9443H8.85866C10.9382 20.9443 12.6307 19.2523 12.6307 17.1722V12.0856C12.6307 10.0056 10.9382 8.31358 8.85866 8.31358H5.06586V5.08409H94.9362V8.31358H90.0588C87.9792 8.31358 86.2867 10.0056 86.2867 12.0856V17.1727C86.2867 19.2523 87.9792 20.9448 90.0588 20.9448H94.9362V26.5512H93.577C88.1743 26.5512 83.7791 30.1702 83.7791 34.619V64.5613C83.7791 69.0101 88.1743 72.6292 93.577 72.6292H94.9362V78.7209H90.0588C87.9792 78.7209 86.2867 80.4129 86.2867 82.4929V87.58C86.2867 89.6601 87.9792 91.3521 90.0588 91.3521H94.9362V94.9194H5.06586V94.9184ZM67.9823 72.6287H30.9352C24.9108 72.6287 20.0106 67.728 20.0106 61.7042V37.4752C20.0106 31.4514 24.9113 26.5507 30.9352 26.5507H67.9823C74.0066 26.5507 78.9068 31.4514 78.9068 37.4752V61.7042C78.9073 67.728 74.0066 72.6287 67.9823 72.6287ZM29.8886 82.4924V87.5795C29.8886 89.6596 28.196 91.3516 26.1165 91.3516H21.0299C18.9504 91.3516 17.2579 89.6596 17.2579 87.5795V82.4924C17.2579 80.4129 18.9504 78.7204 21.0299 78.7204H26.1165C28.196 78.7204 29.8886 80.4124 29.8886 82.4924ZM47.1454 82.4924V87.5795C47.1454 89.6596 45.4534 91.3516 43.3739 91.3516H38.2867C36.2072 91.3516 34.5147 89.6596 34.5147 87.5795V82.4924C34.5147 80.4129 36.2072 78.7204 38.2867 78.7204H43.3739C45.4539 78.7204 47.1454 80.4124 47.1454 82.4924ZM64.4032 82.4924V87.5795C64.4032 89.6596 62.7107 91.3516 60.6312 91.3516H55.5441C53.4645 91.3516 51.7725 89.6596 51.7725 87.5795V82.4924C51.7725 80.4129 53.4645 78.7204 55.5441 78.7204H60.6312C62.7107 78.7204 64.4032 80.4124 64.4032 82.4924ZM81.6601 82.4924V87.5795C81.6601 89.6596 79.9676 91.3516 77.888 91.3516H72.8014C70.7219 91.3516 69.0294 89.6596 69.0294 87.5795V82.4924C69.0294 80.4129 70.7219 78.7204 72.8014 78.7204H77.888C79.9676 78.7204 81.6601 80.4124 81.6601 82.4924ZM17.2573 17.1722V12.0856C17.2573 10.0056 18.9498 8.31358 21.0294 8.31358H26.116C28.1955 8.31358 29.888 10.0056 29.888 12.0856V17.1727C29.888 19.2523 28.1955 20.9448 26.116 20.9448H21.0299C18.9498 20.9443 17.2573 19.2523 17.2573 17.1722ZM34.5147 17.1722V12.0856C34.5147 10.0056 36.2072 8.31358 38.2867 8.31358H43.3739C45.4534 8.31358 47.1454 10.0056 47.1454 12.0856V17.1727C47.1454 19.2523 45.4534 20.9448 43.3739 20.9448H38.2867C36.2072 20.9443 34.5147 19.2523 34.5147 17.1722ZM51.772 17.1722V12.0856C51.772 10.0056 53.464 8.31358 55.5436 8.31358H60.6307C62.7102 8.31358 64.4027 10.0056 64.4027 12.0856V17.1727C64.4027 19.2523 62.7102 20.9448 60.6307 20.9448H55.5436C53.464 20.9443 51.772 19.2523 51.772 17.1722ZM81.6601 12.0856V17.1727C81.6601 19.2523 79.9676 20.9448 77.888 20.9448H72.8014C70.7219 20.9448 69.0294 19.2528 69.0294 17.1727V12.0856C69.0294 10.0056 70.7219 8.31358 72.8014 8.31358H77.888C79.9676 8.31307 81.6601 10.0056 81.6601 12.0856Z" fill="#2B303A" stroke="#2B303A" stroke-width="0.00100002"/>
</g>
</g>
<defs>
<clipPath id="clip0_3_26">
<rect width="100" height="100" fill="white"/>
</clipPath>
<clipPath id="clip1_3_26">
<rect width="100" height="100" fill="white"/>
</clipPath>
</defs>
</svg>
